<svg width="30" height="26" viewBox="0 0 30 26" fill="none" xmlns="http://www.w3.org/2000/svg">
<g id="&#240;&#159;&#166;&#134; icon &#34;Folder&#34;">
<path id="Vector" d="M15.9064 2.78571H25.0714C27.4305 2.78571 29.3786 4.54511 29.6752 6.82331L29.7044 7.1233L29.7143 7.42857V21.3571C29.7143 23.8188 27.7986 25.8329 25.3767 25.9901L25.0714 26H4.64286C2.18125 26 0.167071 24.0843 0.00987571 21.6624L0 21.3571V8.35714H9.41699L9.70144 8.34259C10.2659 8.28468 10.7994 8.05561 11.2302 7.68629L11.4366 7.49009L15.9064 2.78571ZM9.59524 0C10.0975 0 10.5885 0.135761 11.0173 0.390301L11.2667 0.557143L13.715 2.39386L10.0902 6.21098L9.97731 6.3119C9.85715 6.40282 9.71659 6.46317 9.56792 6.48766L9.41699 6.5H0V4.64286C0 2.18125 1.91571 0.167071 4.33759 0.00987571L4.64286 0H9.59524Z" fill="#AAADA7"/>
</g>
</svg>
